<svg xmlns="http://www.w3.org/2000/svg" viewBox="0 0 800 600">
  <defs>
    <linearGradient id="bg" x1="0" y1="0" x2="1" y2="1">
      <stop offset="0%" stop-color="#233422"/>
      <stop offset="100%" stop-color="#9bb478"/>
    </linearGradient>
  </defs>
  <rect width="800" height="600" fill="url(#bg)"/>
  <ellipse cx="400" cy="455" rx="180" ry="46" fill="#000" opacity=".14"/>
  <path d="M300 180h200l-22 220c-4 38-26 60-58 60h-40c-32 0-54-22-58-60l-22-220Z" fill="#efe7d8"/>
  <path d="M318 204h164l-16 168c-4 28-20 44-43 44h-46c-23 0-39-16-43-44l-16-168Z" fill="#8db266"/>
  <ellipse cx="400" cy="220" rx="84" ry="18" fill="#d6f0b7"/>
  <path d="M382 222c12-17 28-25 48-24-12 18-28 26-48 24Z" fill="#f2f2e4"/>
  <path d="M356 250c20 5 34 17 44 38-22 1-37-12-44-38Z" fill="#d6f0b7"/>
  <text x="52" y="82" fill="#f6f3e6" font-size="42" font-family="Georgia, serif">Matcha Latte</text>
  <text x="52" y="120" fill="#d7ecc0" font-size="24" font-family="Arial, sans-serif">Velvety green tea, creamy swirl, mellow energy</text>
</svg>
