<svg xmlns="http://www.w3.org/2000/svg" viewBox="0 0 800 600">
  <defs>
    <linearGradient id="bg" x1="0" y1="0" x2="1" y2="1">
      <stop offset="0%" stop-color="#1d2d1f"/>
      <stop offset="100%" stop-color="#8ba85f"/>
    </linearGradient>
  </defs>
  <rect width="800" height="600" fill="url(#bg)"/>
  <ellipse cx="400" cy="450" rx="180" ry="46" fill="#000" opacity=".15"/>
  <rect x="285" y="200" width="210" height="180" rx="30" fill="#f6f0df"/>
  <rect x="310" y="224" width="160" height="130" rx="24" fill="#e7cf7e"/>
  <path d="M495 236c38 0 69 30 69 66 0 34-24 58-58 58h-12v-28h8c21 0 36-14 36-32 0-20-16-36-38-36h-6v-28h1Z" fill="#f6f0df"/>
  <path d="M330 176c18 10 26 26 24 50-23-8-31-24-24-50Zm84-22c19 15 24 34 16 59-22-13-27-33-16-59Zm82 17c15 11 22 26 18 46-18-7-27-22-18-46Z" fill="#dce5b2"/>
  <g transform="translate(250 392)">
    <circle cx="40" cy="40" r="18" fill="#f6f0df"/>
    <circle cx="120" cy="18" r="18" fill="#f6f0df"/>
    <circle cx="202" cy="36" r="18" fill="#f6f0df"/>
    <g fill="#f5d768">
      <circle cx="40" cy="40" r="7"/>
      <circle cx="120" cy="18" r="7"/>
      <circle cx="202" cy="36" r="7"/>
    </g>
  </g>
  <text x="52" y="82" fill="#f7f4e6" font-size="42" font-family="Georgia, serif">Chamomile Tea</text>
  <text x="52" y="120" fill="#e0efc0" font-size="24" font-family="Arial, sans-serif">Calming herbal brew, warm floral finish</text>
</svg>
