<svg xmlns="http://www.w3.org/2000/svg" viewBox="0 0 800 600">
  <defs>
    <linearGradient id="bg" x1="0" y1="0" x2="1" y2="1">
      <stop offset="0%" stop-color="#21120e"/>
      <stop offset="100%" stop-color="#865130"/>
    </linearGradient>
  </defs>
  <rect width="800" height="600" fill="url(#bg)"/>
  <ellipse cx="400" cy="450" rx="190" ry="50" fill="#000" opacity=".16"/>
  <rect x="285" y="230" width="210" height="130" rx="28" fill="#f3ece1"/>
  <rect x="308" y="250" width="164" height="84" rx="18" fill="#4b2415"/>
  <ellipse cx="390" cy="264" rx="76" ry="12" fill="#f1d6a8"/>
  <path d="M494 252c32 0 57 24 57 54 0 28-20 48-48 48h-11v-24h6c18 0 29-11 29-25 0-16-13-29-31-29h-4v-24h2Z" fill="#f3ece1"/>
  <path d="M364 172c-10 28-2 54 24 78" stroke="#f5e8d2" stroke-width="8" stroke-linecap="round" fill="none" opacity=".75"/>
  <path d="M410 156c-8 24-2 46 18 67" stroke="#f5e8d2" stroke-width="8" stroke-linecap="round" fill="none" opacity=".55"/>
  <text x="52" y="82" fill="#f8efe2" font-size="42" font-family="Georgia, serif">Artisan Espresso</text>
  <text x="52" y="120" fill="#efcfa9" font-size="24" font-family="Arial, sans-serif">Deep roast, crema top, concentrated lift</text>
</svg>
