<svg xmlns="http://www.w3.org/2000/svg" viewBox="0 0 800 600">
  <defs>
    <linearGradient id="bg" x1="0" y1="0" x2="1" y2="1">
      <stop offset="0%" stop-color="#5b2d0f"/>
      <stop offset="100%" stop-color="#d36d2a"/>
    </linearGradient>
  </defs>
  <rect width="800" height="600" fill="url(#bg)"/>
  <ellipse cx="400" cy="435" rx="220" ry="58" fill="#000" opacity=".18"/>
  <circle cx="400" cy="300" r="170" fill="#f1ebdf"/>
  <circle cx="400" cy="300" r="148" fill="#cb5b1b"/>
  <g fill="#f29a43">
    <circle cx="340" cy="252" r="18"/>
    <circle cx="430" cy="238" r="17"/>
    <circle cx="492" cy="292" r="19"/>
    <circle cx="312" cy="322" r="17"/>
    <circle cx="404" cy="338" r="18"/>
  </g>
  <path d="M505 226c42 8 66 37 73 88-44 4-78-16-102-59 0-14 10-24 29-29Z" fill="#6b3a19"/>
  <path d="M501 230c27 4 44 22 48 54-29 6-52-8-67-40 1-9 8-14 19-14Z" fill="#b56f33"/>
  <path d="M280 238c31 16 43 39 36 69-31 2-52-13-64-43 3-15 12-24 28-26Z" fill="#4f8c33"/>
  <text x="52" y="82" fill="#fff0db" font-size="42" font-family="Georgia, serif">Jollof Rice with Chicken</text>
  <text x="52" y="120" fill="#f9cf9a" font-size="24" font-family="Arial, sans-serif">Smoky rice, grilled chicken, classic comfort</text>
</svg>
