<svg xmlns="http://www.w3.org/2000/svg" viewBox="0 0 800 600">
  <defs>
    <linearGradient id="bg" x1="0" y1="0" x2="1" y2="1">
      <stop offset="0%" stop-color="#20362b"/>
      <stop offset="100%" stop-color="#69a56b"/>
    </linearGradient>
  </defs>
  <rect width="800" height="600" fill="url(#bg)"/>
  <ellipse cx="400" cy="455" rx="180" ry="46" fill="#000" opacity=".14"/>
  <path d="M325 152h150l-18 258c-3 31-22 50-49 50h-16c-27 0-46-19-49-50l-18-258Z" fill="#f0f6e8"/>
  <path d="M338 176h124l-14 216c-3 23-16 36-36 36h-24c-20 0-33-13-36-36l-14-216Z" fill="#84d17f"/>
  <circle cx="372" cy="250" r="24" fill="#5fb75f"/>
  <circle cx="424" cy="288" r="30" fill="#6cc16a"/>
  <circle cx="392" cy="330" r="26" fill="#79d472"/>
  <rect x="455" y="110" width="12" height="90" rx="6" transform="rotate(12 455 110)" fill="#f5d67b"/>
  <text x="52" y="82" fill="#eef9ec" font-size="42" font-family="Georgia, serif">Fresh Green Smoothie</text>
  <text x="52" y="120" fill="#d0f0d2" font-size="24" font-family="Arial, sans-serif">Leafy blend, chilled glass, bright clean finish</text>
</svg>
